HIERARCHY
ROOT Spine
{
    OFFSET 0.0 0.0 -0.0
    CHANNELS 6 Xposition Yposition Zposition Zrotation Xrotation Yrotation
    JOINT ShoulderCenter
    {
        OFFSET 0.0 35.041839599609375 0.0
        CHANNELS 3 Zrotation Xrotation Yrotation
        JOINT LeftShoulder
        {
            OFFSET 18.595348358154297 0.0 0.0
            CHANNELS 3 Zrotation Xrotation Yrotation
            JOINT LeftElbow
            {
                OFFSET 29.717397689819336 0.0 0.0
                CHANNELS 3 Zrotation Xrotation Yrotation
                JOINT LeftHand
                {
                    OFFSET 32.40068054199219 0.0 0.0
                    CHANNELS 3 Zrotation Xrotation Yrotation
                    End Site
                    {
                        OFFSET 12.960272789001465 0.0 0.0
                    }
                }
            }
        }
        JOINT RightShoulder
        {
            OFFSET -18.595348358154297 0.0 0.0
            CHANNELS 3 Zrotation Xrotation Yrotation
            JOINT RightElbow
            {
                OFFSET -29.717397689819336 0.0 0.0
                CHANNELS 3 Zrotation Xrotation Yrotation
                JOINT RightHand
                {
                    OFFSET -32.40068054199219 0.0 0.0
                    CHANNELS 3 Zrotation Xrotation Yrotation
                    End Site
                    {
                        OFFSET -12.960272789001465 0.0 0.0
                    }
                }
            }
        }
        End Site
        {
            OFFSET 0.0 14.016736030578613 0.0
        }
    }
    JOINT LeftHip
    {
        OFFSET 17.49466723907981 -17.49466723907981 0.0
        CHANNELS 3 Zrotation Xrotation Yrotation
        JOINT LeftKnee
        {
            OFFSET 0.0 -41.608306884765625 0.0
            CHANNELS 3 Zrotation Xrotation Yrotation
            JOINT LeftFoot
            {
                OFFSET 0.0 -44.10009002685547 0.0
                CHANNELS 3 Zrotation Xrotation Yrotation
                End Site
                {
                    OFFSET 0.0 0.0 17.640037536621094
                }
            }
        }
    }
    JOINT RightHip
    {
        OFFSET -17.49466723907981 -17.49466723907981 0.0
        CHANNELS 3 Zrotation Xrotation Yrotation
        JOINT RightKnee
        {
            OFFSET 0.0 -41.608306884765625 0.0
            CHANNELS 3 Zrotation Xrotation Yrotation
            JOINT RightFoot
            {
                OFFSET 0.0 -44.10009002685547 0.0
                CHANNELS 3 Zrotation Xrotation Yrotation
                End Site
                {
                    OFFSET 0.0 0.0 17.640037536621094
                }
            }
        }
    }
}
MOTION
Frames: 8
Frame Time: 0.03333333333333333
-92.4000015258789 10.800000190734863 -18.5 -0.6585460357429294 -3.9449295250691336 97.66562511682437 1.889286944355759e-07 -3.7959980166183947e-07 -3.6796003539543087 95.1019943367313 5.7985815718589855 171.04073402738743 3.429905706259495e-06 -3.4750105034111446e-06 28.30175599236847 0.0 0.0 -6.3611093629270335e-15 -96.64600508102534 -4.307489734283694 -171.33877986396868 -7.54697841151854e-07 -6.1790568027144186e-06 -34.820105341178596 0.0 0.0 -3.1805546814635168e-15 1.1959159290642485 -9.240264557291878 -2.751062011846661 3.9886563447054875 13.261785419811895 -36.24346982808887 1.1379602174660566e-32 3.975693351829396e-16 -3.2799470152592518e-15 4.4559708805122415 -1.6844302701168554 14.615311113635096 -7.990545871856486 6.662171919029218 13.78324584466292 9.724387312891755e-32 1.5902773407317584e-15 -7.00715953259931e-15
-92.29999542236328 10.800000190734863 -18.700000762939453 -0.8231584913796338 -4.1085916996986 97.6857813136006 1.5685838748050312e-07 5.576600338236384e-08 -3.870540049960962 95.53099489419678 6.365273341600832 170.98416484019322 2.4765039529722683e-06 -4.7268507744074304e-06 28.095975819022858 -3.531125038440127e-31 6.3611093629270335e-15 6.3611093629270335e-15 -96.50210352786593 -4.442838463342114 -171.75412909985107 3.5099909872980534e-06 -1.2009387264706673e-06 -35.36010191593513 0.0 6.361109362927033e-15 0.0 1.3316409659271344 -9.42551261857303 -2.7790146097125175 3.714865839418056 13.288116530154353 -35.84268520181723 3.9756933518293955e-16 -3.534573402735479e-33 -1.0187714214062825e-15 4.319937626101428 -1.8339091019679388 14.907826723964074 -7.765732244952261 6.769456748974642 14.121724435467144 7.951386703658792e-16 -4.586324512817743e-32 -6.609590197416371e-15
-92.29999542236328 10.699999809265137 -18.899999618530273 -0.9877580386402334 -4.272148873746182 97.4059448340389 3.938322816304534e-08 -2.2172324135312704e-07 -3.451180282094395 96.04869298085545 6.507668246006987 171.4198192997089 3.7901275216485656e-06 -1.99872959315454e-06 27.416622974300598 0.0 0.0 6.3611093629270335e-15 -96.05845624010213 -3.36718917011169 -171.553955906807 1.9767524925279858e-07 8.56739057199548e-07 -36.42699273780544 -6.3611093629270335e-15 -6.3611093629270335e-15 -3.1805546814635168e-15 1.381022142631668 -9.584637179019994 -3.2598289505647275 3.5513566085299058 13.46808498938938 -35.64121357482775 -7.95138670365879e-16 0.0 0.0 4.193943091066164 -1.9613371314904384 15.349309202874087 -7.520541698735511 6.551408431137182 13.620962050295795 -7.951386703658792e-16 -3.9311352967009226e-32 5.665363026356889e-15
-92.19999694824219 10.699999809265137 -19.100000381469727 -0.9877577036168511 -4.435816059253752 97.36430156939893 -3.6152401334052807e-07 4.491713578317445e-07 -3.413225318634415 96.56814673338816 7.299077619385844 171.20611412532574 -4.5462285565211495e-07 2.578484685481095e-06 27.29770949042959 0.0 -6.361109362927033e-15 0.0 -95.70277488375454 -3.0538419793645604 -171.1947529715962 -4.024690190432261e-06 -3.656107778528347e-06 -37.5504236629698 0.0 0.0 3.1805546814635168e-15 1.526025991128724 -9.757599522980357 -2.1282884598798697 3.5587119583128026 13.57902113204835 -35.91603111681407 0.0 0.0 -9.690752545084152e-16 4.339950522539278 -2.11712502578675 14.651746498539199 -7.657047330639874 6.614928263583022 13.798881452123123 0.0 0.0 1.0684675883041502e-15
-92.19999694824219 10.699999809265137 -19.200000762939453 -1.1523408682674525 -4.599168274564326 96.82882175514922 -2.3493453527719822e-07 2.012356005384015e-07 -3.0489039668199855 97.17143010700423 8.105741416244687 171.409650154515 3.631026488042365e-06 2.407397842243683e-06 26.830639739388918 6.3611093629270335e-15 -6.3611093629270335e-15 6.3611093629270335e-15 -95.38967779318992 -3.2249504507666558 -171.58221206018376 3.652675551786863e-06 3.441816998312179e-06 -38.28262904333342 3.1805546814635176e-15 6.361109362927035e-15 -1.7655625192200634e-31 1.5178348986927552 -9.623074519937378 -3.590182249827581 3.4839295674229187 13.529680223220748 -35.38606244027673 7.951386703658792e-16 -3.975693351829396e-16 -4.969616689786745e-17 4.3638820182732765 -2.2441559541062235 15.25727042275838 -7.349212946119584 6.648307198329835 13.830883492918144 0.0 0.0 -7.702905869169456e-16
-92.19999694824219 10.699999809265137 -19.200000762939453 -1.1523408821803085 -4.926118679097973 96.83654006504766 -3.560425566726044e-07 4.5302698122945104e-07 -3.3578167496279137 97.95654882168441 8.8094085120308 171.3734011458452 6.681572524192304e-07 2.666415485474087e-06 26.658108288899072 -3.531125038440127e-31 -3.1805546814635168e-15 -1.2722218725854067e-14 -95.00328260810167 -3.725207159939918 -171.66090729952617 1.6566535186132416e-06 -2.8915682520788355e-06 -39.12097548851126 3.1805546814635176e-15 -6.361109362927035e-15 1.7655625192200634e-31 1.9854012824254978 -9.660542726442968 -3.6863822675339537 3.177463162584607 13.534600083279175 -35.01793688788241 -2.9311096510489336e-33 -3.975693351829396e-16 -8.448348372637467e-16 4.826851891588119 -2.3000793861089925 15.176423373124408 -7.626725242547439 6.750023613899177 14.124307754627342 0.0 0.0 1.1927080055488192e-15
-92.19999694824219 10.699999809265137 -19.200000762939453 -1.3169174922740037 -5.089161561253792 96.29357943925851 2.3670977998952373e-08 1.575307370130543e-07 -2.982135867121423 98.34384042409414 9.41954520561864 171.52697949445852 1.3673193208308716e-06 1.799355011812048e-06 26.46283797391137 5.29668755766019e-31 9.54166404439055e-15 -6.3611093629270335e-15 -94.83223381135954 -4.302473586547507 -171.81025914344335 -1.4961325088244927e-06 -1.9454711975668983e-06 -39.58716122693781 -6.3611093629270335e-15 -6.3611093629270335e-15 3.1805546814635164e-15 1.9765992046345118 -9.522615624069276 -5.111053713340727 3.2479972153237737 13.335392093713779 -34.39436241192706 0.0 0.0 3.1557065980145826e-15 4.992502717425704 -2.4356891876392126 15.719077434151268 -7.626725242547439 6.750023613899177 14.124307754627342 0.0 0.0 1.1927080055488192e-15
-92.19999694824219 10.699999809265137 -19.200000762939453 -1.1523410064580817 -5.089474564542467 96.03521452128493 1.7713532901150975e-07 -8.65515902858003e-08 -3.179561628921246 98.65349214007817 10.106329135655983 171.13936423479913 -2.7326759106581145e-07 -1.6878020176733725e-06 26.860377761399285 -6.3611093629270335e-15 0.0 0.0 -94.64575635240861 -4.994789381078704 -172.07171229571236 -3.7854304347101815e-06 1.4802591599768573e-06 -39.62001261325172 0.0 0.0 0.0 2.161470445851115 -9.499657999587383 -4.451194224164956 3.350090308109462 13.594188003490832 -35.608018722950085 0.0 0.0 1.6399735076296255e-15 5.006187228534683 -2.386454618860254 15.246270396970967 -7.5421859849922175 6.734553936413566 13.933672870645168 0.0 0.0 -9.93923337957349e-16
